<svg width="25" height="28" viewBox="0 0 25 28" fill="none" xmlns="http://www.w3.org/2000/svg">
<path d="M8.83324 8.62107C9.76657 8.62107 10.5166 7.95791 10.5166 7.13265C10.5166 6.30738 9.76657 5.64423 8.83324 5.64423C7.8999 5.64423 7.1499 6.30738 7.1499 7.13265C7.1499 7.95791 7.8999 8.62107 8.83324 8.62107Z" fill="#0073D8"/>
<path fill-rule="evenodd" clip-rule="evenodd" d="M12.2165 11.8632C12.2165 10.2716 10.6998 9.12213 8.83317 9.12213C6.9665 9.12213 5.44984 10.2716 5.44984 11.8632V12.6148C5.44984 12.7474 5.5165 12.88 5.6165 12.9684C5.7165 13.0569 5.8665 13.1158 6.0165 13.1158H11.6498C11.7998 13.1158 11.9498 13.0569 12.0498 12.9684C12.1498 12.88 12.2165 12.7474 12.2165 12.6148V11.8632ZM5.4165 16.2106C5.4165 15.9174 5.5482 15.6363 5.78262 15.429C6.01704 15.2217 6.33498 15.1053 6.6665 15.1053H18.3332C18.6647 15.1053 18.9826 15.2217 19.2171 15.429C19.4515 15.6363 19.5832 15.9174 19.5832 16.2106C19.5832 16.5037 19.4515 16.7848 19.2171 16.9921C18.9826 17.1994 18.6647 17.3158 18.3332 17.3158H6.6665C6.33498 17.3158 6.01704 17.1994 5.78262 16.9921C5.5482 16.7848 5.4165 16.5037 5.4165 16.2106ZM5.4165 20.6316C5.4165 20.3385 5.5482 20.0573 5.78262 19.8501C6.01704 19.6428 6.33498 19.5263 6.6665 19.5263H18.3332C18.6647 19.5263 18.9826 19.6428 19.2171 19.8501C19.4515 20.0573 19.5832 20.3385 19.5832 20.6316C19.5832 20.9247 19.4515 21.2059 19.2171 21.4131C18.9826 21.6204 18.6647 21.7369 18.3332 21.7369H6.6665C6.33498 21.7369 6.01704 21.6204 5.78262 21.4131C5.5482 21.2059 5.4165 20.9247 5.4165 20.6316Z" fill="#0073D8"/>
<path fill-rule="evenodd" clip-rule="evenodd" d="M0 2.94737C0 1.32337 1.49667 0 3.33333 0H14.4833C15.42 0 16.3033 0.350737 16.925 0.929895L16.935 0.940211L24.1217 7.86947C24.72 8.4339 25 9.17221 25 9.87368V25.0526C25 26.6766 23.5033 28 21.6667 28H3.33333C1.49667 28 0 26.6766 0 25.0526V2.94737ZM14.4817 2.94737H3.33333V25.0526H21.6667V9.86189L14.5067 2.95768L14.5017 2.95621C14.4956 2.95231 14.4888 2.94932 14.4817 2.94737Z" fill="#0073D8"/>
<path fill-rule="evenodd" clip-rule="evenodd" d="M14.4831 0C14.9251 0 15.349 0.155263 15.6616 0.431632C15.9741 0.708001 16.1497 1.08284 16.1497 1.47368V8.4H23.3331C23.5519 8.4 23.7687 8.43812 23.9709 8.51218C24.1731 8.58624 24.3568 8.69479 24.5116 8.83163C24.6664 8.96848 24.7891 9.13093 24.8729 9.30973C24.9566 9.48853 24.9997 9.68016 24.9997 9.87368C24.9997 10.0672 24.9566 10.2588 24.8729 10.4376C24.7891 10.6164 24.6664 10.7789 24.5116 10.9157C24.3568 11.0526 24.1731 11.1611 23.9709 11.2352C23.7687 11.3092 23.5519 11.3474 23.3331 11.3474H14.4831C14.041 11.3474 13.6171 11.1921 13.3046 10.9157C12.992 10.6394 12.8164 10.2645 12.8164 9.87368V1.47368C12.8164 1.08284 12.992 0.708001 13.3046 0.431632C13.6171 0.155263 14.041 0 14.4831 0Z" fill="#0073D8"/>
</svg>
